<svg xmlns="http://www.w3.org/2000/svg" viewBox="0 0 134.43 118.45"><title>Asset 15</title><g id="f4f603a7-7190-4728-908f-d6493d69be3a" data-name="Layer 2"><g id="b8da64d0-1219-4212-a11f-b22e13f32b3a" data-name="Layer 4"><path d="M134.41,58.91V57.22s0-.24,0-.28-.24,0-.29-.06.07-.44,0-.58-.15-.07-.21-.15,0-.21,0-.26,0-.26,0-.32-.23,0-.29-.09,0-.39,0-.51-.06-.07-.22-.17-.05-.1-.07-.24,0-.1,0-.13-.08,0-.11-.06-.06,0-.1-.1a.48.48,0,0,1,0-.12c0-.13,0-.21-.08-.27s-.1,0-.14,0-.05-.07-.07-.08-.09-.11-.07-.09-.12,0-.15,0,0-.23,0-.29,0-.09-.14-.19l-.14-.06s0-.07,0-.1-.19,0-.25-.12,0-.18,0-.26-.07-.08-.22-.19,0-.11,0-.12-.11,0-.14,0-.13,0-.15,0,0-.12,0-.15-.18,0-.25-.09,0-.12,0-.17-.1,0-.11-.06L131,51.7s0-.06-.07-.11-.15,0-.22-.11,0-.1,0-.12-.11,0-.14,0l-.11,0c-.05,0-.06,0,0-.07s-.09-.11-.07-.09-.12,0-.14,0,0-.1,0-.12-.18,0-.25-.12,0-.15,0-.23h-.5c.06-.19-.08-.13-.18-.2s-.11-.09-.11-.25h-.51v-.25h-.5c.06-.19-.07-.13-.18-.2s-.06,0-.11-.09,0-.08-.07-.16h-.43a.29.29,0,0,0-.07-.25h-.72V49h-1.08v-.25h-1.08c0-.17-.08-.2-.22-.26H81.43v-.19h-.79v-.25h-.58c0-.15,0-.16-.07-.24s-.12,0-.14-.21,0-.16-.07-.23-.18,0-.22-.18a1.61,1.61,0,0,1,0-.31.57.57,0,0,0,0-.13c0-.09-.06,0-.11-.1s-.07,0-.11-.09a.56.56,0,0,1,0-.13V10.25a7,7,0,0,0,0-1.21s-.1-.21-.07-.19-.12,0-.14,0-.07-.1-.07-.25a2.18,2.18,0,0,0,0-.57c-.07-.19-.16,0-.29-.15s0-.25,0-.29.07-.46,0-.57-.17,0-.22-.22a1.13,1.13,0,0,1,0-.26c0-.18,0-.15-.14-.27s-.12,0-.15-.17,0-.15,0-.19-.15,0-.21-.11,0-.14-.07-.21-.17,0-.22-.19c0-.06,0-.21,0-.25s-.22,0-.29-.16,0-.24,0-.29-.23,0-.29-.09,0-.13,0-.16-.12,0-.14,0,0-.18-.07-.31-.19-.07-.29-.16,0-.1,0-.13,0,0-.11-.08-.13,0-.18,0,0-.11,0-.13-.16,0-.21-.06,0-.1,0-.13-.19,0-.29-.13,0-.14-.07-.2-.14,0-.18,0,0-.11,0-.14-.17,0-.22-.06,0-.1,0-.13,0,0-.1-.08-.16,0-.18,0,0-.1,0-.13L75,2.29c-.07-.09-.19,0-.14-.2H74.3a.43.43,0,0,0,0-.16c0-.1,0,0-.1-.09s-.08,0-.11-.1a.75.75,0,0,1,0-.15h-.58c0-.18-.07-.12-.14-.2s-.06-.17-.15-.25h-.5V.89h-.5V.7h-.8V.44h-.79V.25h-.79V0H64.59V.25h-.8V.44H63V.7h-.79V.89h-.5v.25h-.58c0,.14,0,.17-.07.25s-.19,0-.15.2h-.57s0,.11,0,.15-.05,0-.11.1-.08,0-.11.09a.85.85,0,0,0,0,.16h-.57c.05.2-.07.11-.15.2s-.06.18-.11.22-.18.05-.25.12,0,.09,0,.14-.14,0-.18,0,0,.11-.07.14-.12,0-.15,0-.06.18-.11.22-.18,0-.25.12,0,.1,0,.13-.14,0-.18,0,0,.1-.11.15-.1,0-.14,0,0,.14-.11.21-.19,0-.25.12,0,.21,0,.28-.14,0-.18.09,0,.11,0,.14-.12,0-.21.11-.05.14-.07.27,0,.06-.18.16-.08.1-.11.28c0,0,0,.11,0,.13s-.12,0-.15,0-.07.16-.14.23-.17,0-.22.17,0,.17,0,.22-.09,0-.14.08-.12.07-.14.21,0,.21,0,.32,0,.1,0,.12-.12,0-.15,0-.07.15-.07.3v.29a1.14,1.14,0,0,1,0,.32s-.24,0-.29.06,0,.51,0,.63a.58.58,0,0,1,0,.27s-.15,0-.18,0,0,.1,0,.13a3,3,0,0,0-.08,1.2v36a1.6,1.6,0,0,1,0,.31c0,.23-.09,0-.21.19s.07.43,0,.58-.21,0-.29.12,0,.25,0,.32-.11,0-.22.11-.07.12-.07.24h-.5v.25H53v.19H10.24c-.16.07-.25.09-.22.26H8.94V49H7.86v.19H7.14a.26.26,0,0,0-.07.25H6.64c0,.05,0,.13-.08.16s0,0-.1.09-.22,0-.18.2H5.77v.25h-.5s0,.12,0,.16,0,0-.11.09-.22,0-.18.2h-.5s0,.11,0,.15,0,0-.11.09-.15,0-.18,0,0,.1,0,.13-.11.06-.14.1L4,51.23c0,.06,0,.08-.07.08H3.83s-.13,0-.14,0,0,.15,0,.19-.12,0-.15,0l-.11,0s-.06,0,0,.07-.12.14-.07.09-.12.06-.15.1,0,.1,0,.13S3,52,3,52s0,0-.08.08,0,.08-.07.14-.11,0-.14,0-.05.1-.07.11l-.15.08a.34.34,0,0,0-.07.27c0,.17,0,.13-.11.22L2.1,53s0,.07,0,.1-.19,0-.26.15.05.23,0,.32-.1,0-.14.07-.11.11-.07.09,0,.08-.07.08H1.45s-.12,0-.14,0,0,.24,0,.29,0,.08-.14.19-.11,0-.15.16,0,.18-.07.27-.11,0-.14.17.07.42,0,.52-.18,0-.25.15,0,.18,0,.25a.94.94,0,0,1,0,.29c-.06.07-.17,0-.22.12s.1.46,0,.58-.23,0-.29.09,0,.24,0,.29v3.9a.88.88,0,0,0,0,.28c.06.12.11,0,.22.11s0,.35.07.53.07.05.18.18,0,.14,0,.23a1.14,1.14,0,0,0,0,.32c.06.16.08,0,.21.14s.08.3.08.46,0,.17,0,.19.12,0,.14,0,.05.1.07.25,0,.09.11.18.14,0,.18.16-.05.22.07.32.11,0,.15,0,.1.11.07.09.09.1.07.08.12,0,.14,0,0,.22,0,.28,0,.09.15.19l.14.06s0,.08,0,.11.19,0,.25.12,0,.18,0,.25.07.08.22.19,0,.11,0,.13.1,0,.14,0,.13,0,.14,0,0,.13,0,.16.17,0,.26.09,0,.1.07.14.12,0,.14,0,0,.16.11.22.15,0,.22.11,0,.1,0,.13.11,0,.14,0l.11,0s.06,0,0,.08.1.1.08.08.12,0,.14,0,0,.1,0,.13.16,0,.25.12,0,.15.11.23H5c-.06.19.07.12.18.2s.11.08.11.24h.5v.26h.51c-.06.19.07.12.18.2s.06,0,.1.08,0,.09.08.16h.43a.25.25,0,0,0,.07.25h.72v.2H8.94v.25H10c0,.16.08.19.22.25H53v.19h.79v.26h.5c0,.18,0,.12.15.19s.12,0,.14.19,0,.24,0,.28.22,0,.29.13-.08.44,0,.58.15,0,.18.18a1.41,1.41,0,0,1,0,.29v36a7.62,7.62,0,0,0,0,1.17s.09.21.08.2.18,0,.21.06,0,.19,0,.25a1.82,1.82,0,0,0,0,.57c.06.12.22.06.29.16s0,.22,0,.29-.07.48,0,.57.19,0,.22.22a1.4,1.4,0,0,0,0,.29c0,.16,0,.11.18.22s.06,0,.1.09,0,.1,0,.13c0,.24.12.1.26.24s0,.16.1.23.13,0,.15.2,0,.16.07.23.17,0,.22.18-.05.19.07.27.11,0,.14,0,0,0,.07.11a1.25,1.25,0,0,1,.08.12s.11,0,.14,0,0,.24,0,.32.19,0,.29.12,0,.14.07.21.13,0,.18,0,0,.1,0,.13.18,0,.21.07,0,.1,0,.12,0,0,.11.09.15,0,.18,0,0,.1,0,.13l.07.08.15.08s0,.07.07.11.18,0,.21,0,0,.1,0,.12,0,0,.11.09.15,0,.18,0,0,.1,0,.13l.07.08c.08.09.2,0,.15.2h.57a.85.85,0,0,0,0,.16c.05.11.05,0,.11.1s.08,0,.11.09a.85.85,0,0,1,0,.16h.57c0,.17.07.11.15.2s.07.11.07.24h.58v.19h.5v.26H63V118h.79v.19h.8v.26h5.25v-.26h.79V118h.79v-.25h.8v-.26h.5v-.19h.5c.09-.07.09-.18.15-.24s.18,0,.14-.2h.58s0-.12,0-.16,0,0,.11-.09.07,0,.1-.1a.85.85,0,0,0,0-.16h.58c0-.19.06-.11.14-.2s.06-.18.11-.22.19,0,.25-.12,0-.1,0-.12.15,0,.18-.06,0-.1.08-.14.13,0,.18,0,0-.14.1-.22.19,0,.26-.12,0-.09,0-.12.14,0,.18-.06,0-.1.07-.14.13,0,.18,0,0-.12.07-.21.22,0,.29-.19,0-.2,0-.25.18,0,.21-.06,0-.13,0-.16.24,0,.29-.1,0-.24,0-.31.12,0,.22-.12,0-.15.07-.3.13,0,.22-.16,0-.1,0-.12a.94.94,0,0,1,.1-.1c.13-.11.16,0,.18-.22s0-.16,0-.19.12,0,.15,0,.14-.09.14-.28a2.09,2.09,0,0,1,0-.25c0-.2.12-.09.22-.25a2,2,0,0,0,0-.64c0-.11,0-.15.07-.21s.17,0,.22-.17,0-.41,0-.6,0-.09.14-.2a.51.51,0,0,0,.14-.25,6.87,6.87,0,0,0,0-1.2V72s0-.12,0-.15.11,0,.15-.08a.24.24,0,0,0,.07-.21,1.71,1.71,0,0,1,0-.32c0-.18.06-.07.22-.17s.07-.14.07-.27a.24.24,0,0,1,.07-.21c.08-.09.2,0,.14-.2h.58V70.1h.79v-.19h42.76c.16-.07.25-.09.22-.25h1.08v-.25h1a.23.23,0,0,0,.08-.2h.72a.28.28,0,0,0,.07-.25h.43s0-.12.07-.16,0,0,.11-.08.22,0,.18-.2h.5v-.26h.51a.43.43,0,0,1,0-.16c.05-.11,0,0,.11-.08s.21,0,.18-.2h.43c.05,0,0-.12.07-.16s0,0,.11-.09.15,0,.18,0,0-.1,0-.12.11-.07.14-.11.11-.11.07-.08,0-.09.08-.08l.07,0s.12,0,.14,0,0-.15,0-.19.11,0,.15,0,.06,0,.14-.1,0-.1,0-.12.17,0,.22-.07,0-.11,0-.12.2,0,.28-.13,0-.08.08-.14.1,0,.14,0,.05-.09.07-.11L132,66c.07-.09.07-.13.07-.28s0-.13.11-.21a.83.83,0,0,1,.18-.07s0-.08,0-.1.19,0,.25-.16-.05-.23,0-.31.11,0,.15-.08l.07-.08c0-.06,0-.09.07-.09l.07,0c.05,0,.11,0,.15-.08s0-.21,0-.29.11,0,.21-.16,0-.19,0-.25.07-.08.22-.17.07-.09.07-.21v-.25c0-.19,0-.12.11-.22s.15,0,.18-.2a2.09,2.09,0,0,0,0-.25c0-.15,0-.16.07-.24s.12,0,.14,0,0-.09,0-.12-.07-.43.08-.53.15,0,.21-.14a.88.88,0,0,0,0-.28Z"/></g></g></svg>