<svg xmlns="http://www.w3.org/2000/svg" viewBox="0 0 127.6 116.94"><defs><style>.fe219780-b099-4c96-a343-d064ee8fc3e8{fill:#fff;}.f2c51377-c77c-47b7-b427-97cfc36f76a8{fill:#040094;stroke:#fff;stroke-miterlimit:10;stroke-width:3px;}</style></defs><title>Asset 20</title><g id="b21da15f-2c57-4bcb-b1fa-4ef27be2fdfd" data-name="Layer 2"><g id="b7f110e3-70ed-4893-84e1-970c6e540a72" data-name="Layer 13"><path d="M127.57,95.45V65.18c0-.05,0-.21,0-.25s-.19,0-.24-.06,0-.17-.11-.25-.16,0-.21-.09a1.67,1.67,0,0,1,0-.5h-.56v-.29h-.35v-.36H8.41v.36H8.13V64H7.5c0,.18,0,.46-.07.56s-.15,0-.21.12,0,.07-.07.17-.08,0-.11,0-.1.06-.1.25v30.3c0,.09-.06.43,0,.5s.16,0,.21.06,0,.09.07.16.24.07.28.29-.06.33.07.47h.56v.29h.28v.29H126.1v-.29h.35v-.29h.42c.22-.09.11-.29.14-.47s0-.07.11-.17.12-.05.17-.12-.05-.07.07-.16.17,0,.21-.09A1.48,1.48,0,0,0,127.57,95.45Z"/><ellipse class="fe219780-b099-4c96-a343-d064ee8fc3e8" cx="105.47" cy="87.4" rx="5.24" ry="5.6"/><ellipse class="fe219780-b099-4c96-a343-d064ee8fc3e8" cx="117.73" cy="87.4" rx="5.24" ry="5.6"/><path class="f2c51377-c77c-47b7-b427-97cfc36f76a8" d="M51.42,1.5h1A8.82,8.82,0,0,1,54.8,3.38c2.53,2.53,5.08,5,7.62,7.56L72.74,21.17,84.49,32.81,93,41.27c2.46,2.44,5,4.85,7.37,7.33.71.73,1.63,1.37,1.82,2.49v.8a3,3,0,0,1-3.09,1.94c-8.41,0-16.81,0-25.22,0h-.46v.49q0,29.09,0,58.16a5.34,5.34,0,0,1-.1,1.13,2.51,2.51,0,0,1-2.62,1.83H32.52a2.48,2.48,0,0,1-2.32-2.77q0-10.17,0-20.32V53.82H4.34A3,3,0,0,1,2.13,53a2.15,2.15,0,0,1-.61-1.89,2.94,2.94,0,0,1,1-1.76q2-2.07,4.09-4.13L18.67,33.3c.79-.79,1.61-1.55,2.4-2.34l5.21-5.19c1-1,2-2,3.07-3L36.24,16l7-6.91C45,7.32,46.7,5.57,48.46,3.87A9.87,9.87,0,0,1,51.42,1.5Z"/></g></g></svg>