<svg xmlns="http://www.w3.org/2000/svg" viewBox="0 0 133.9 117.51"><defs><style>.e38ae97e-a2b0-4e9a-867d-924eabe86e88{fill:#fff;}.bf16fb27-979e-4037-8e0b-da24ba84ade0{fill:#009d4b;stroke:#fff;stroke-miterlimit:10;stroke-width:3px;}</style></defs><title>Asset 19</title><g id="a1f7f48d-e105-4b9a-88b6-e2b41d2ff278" data-name="Layer 2"><g id="a857e8d9-deef-4ea8-a3ef-389661e7f75b" data-name="Layer 9"><path d="M133.87,96.81V66.54c0-.05,0-.21,0-.25s-.2,0-.25-.06,0-.17-.11-.25-.17,0-.21-.09,0-.39,0-.5h-.58V65.1h-.36v-.36H11.8v.36h-.29v.29h-.64c0,.18.05.46-.08.56s-.15,0-.21.12.05.07-.07.17-.08,0-.11,0-.11.07-.11.25v30.3c0,.1,0,.44,0,.5s.17,0,.22.06,0,.09.07.16.25.07.29.29-.06.33.07.47h.57v.29h.29v.29H132.36v-.29h.36v-.29h.43c.23-.09.11-.29.15-.47s0-.07.1-.17.13-.05.18-.12-.05-.06.08-.16.16,0,.21-.09S133.87,96.92,133.87,96.81Z"/><ellipse class="e38ae97e-a2b0-4e9a-867d-924eabe86e88" cx="111.23" cy="88.76" rx="5.37" ry="5.6"/><ellipse class="e38ae97e-a2b0-4e9a-867d-924eabe86e88" cx="123.79" cy="88.76" rx="5.37" ry="5.6"/><path class="bf16fb27-979e-4037-8e0b-da24ba84ade0" d="M120.7,58.45V56.82s0-.24,0-.27-.21,0-.25-.06,0-.42,0-.56-.14-.06-.19-.15,0-.2,0-.24a1.07,1.07,0,0,0,0-.31c-.05-.07-.21,0-.26-.09s0-.38,0-.49,0-.07-.19-.17,0-.1-.06-.23,0-.1,0-.13-.08,0-.1-.06-.06,0-.1-.09a.48.48,0,0,1,0-.12c0-.13,0-.2-.06-.26s-.1,0-.13,0a.8.8,0,0,1-.06-.08s-.08-.1-.07-.08-.1,0-.12,0,0-.22,0-.28,0-.09-.13-.18l-.13-.06s0-.08,0-.1-.17,0-.22-.12,0-.17,0-.24-.06-.08-.2-.19,0-.1,0-.12-.09,0-.12,0-.12,0-.13,0,0-.12,0-.15-.17,0-.22-.09,0-.11,0-.16-.08,0-.09-.06l-.1-.06s0-.07-.06-.11-.13,0-.19-.11,0-.09,0-.12-.1,0-.13,0l-.1,0s0,0,0-.07-.08-.11-.06-.08-.11,0-.13-.05,0-.09,0-.12-.15,0-.22-.11,0-.14,0-.23h-.45c0-.18-.07-.12-.16-.19s-.1-.08-.1-.23h-.44v-.25h-.45c0-.18-.07-.12-.16-.19s-.06,0-.1-.09,0-.08-.06-.15h-.38a.26.26,0,0,0-.07-.24h-.64v-.19h-.95v-.24h-1c0-.16-.07-.19-.19-.25H73.72v-.18H73V48H72.5c0-.14,0-.15-.06-.23s-.11,0-.13-.2,0-.16-.06-.23-.16,0-.19-.17a1.5,1.5,0,0,1,0-.3.56.56,0,0,0,0-.13c0-.08,0,0-.1-.09s-.06,0-.09-.09a.48.48,0,0,1,0-.12v-35a7.62,7.62,0,0,0,0-1.17,1.08,1.08,0,0,1-.07-.18s-.1,0-.13,0-.06-.1-.06-.24a2,2,0,0,0,0-.55c-.06-.19-.14,0-.26-.16a1.22,1.22,0,0,1,0-.27c0-.13.07-.45,0-.55s-.15,0-.19-.22a1.92,1.92,0,0,1,0-.24c0-.18,0-.15-.12-.27s-.11,0-.13-.16,0-.14,0-.19-.14,0-.19-.1,0-.14-.07-.2-.15,0-.19-.19c0-.06,0-.2,0-.24s-.19,0-.25-.16,0-.22,0-.27S70,6,70,5.92s0-.12,0-.16-.11,0-.13,0,0-.17-.06-.29-.16-.07-.26-.16,0-.09,0-.12,0,0-.09-.08-.12,0-.16,0,0-.11,0-.13-.15,0-.19-.06,0-.09,0-.12-.17,0-.26-.12,0-.14-.06-.2-.12,0-.16,0,0-.1,0-.13-.15,0-.2-.06,0-.1,0-.12,0,0-.09-.09-.14,0-.16,0,0-.09,0-.12L68,3.72c-.06-.09-.17,0-.12-.2H67.4a.75.75,0,0,0,0-.15c0-.1-.05,0-.1-.09s-.07,0-.1-.09V3h-.51c0-.17-.06-.11-.12-.19s-.06-.16-.13-.24H66V2.36h-.45V2.17h-.7V1.93h-.7V1.75h-.7V1.5H58.78v.25h-.7v.18h-.71v.24h-.7v.19h-.45V2.6h-.51c0,.13,0,.16-.06.24s-.16,0-.13.19H55c0,.05,0,.12,0,.16s0,0-.09.09-.07,0-.1.09a.75.75,0,0,0,0,.15h-.51c0,.19-.06.11-.13.2s0,.17-.09.21-.17,0-.23.12,0,.08,0,.13-.12,0-.16,0,0,.11-.06.14-.11,0-.13,0,0,.17-.1.22-.16,0-.22.11,0,.09,0,.12-.13,0-.16,0,0,.1-.1.15-.09,0-.12,0,0,.14-.1.21-.17,0-.22.11,0,.21,0,.28-.12,0-.16.08,0,.11,0,.14-.11,0-.2.1,0,.14-.06.26,0,.06-.16.16-.06.1-.09.27,0,.11,0,.13-.11,0-.13,0-.07.15-.13.22-.15,0-.19.16,0,.17,0,.22-.08,0-.13.07-.11.07-.13.21,0,.2,0,.3,0,.1,0,.12-.1,0-.12,0-.07.14-.07.29v.28c0,.05,0,.27,0,.3s-.21,0-.25.07,0,.49,0,.61a.49.49,0,0,1,0,.25s-.13,0-.16.06,0,.09,0,.12a3.43,3.43,0,0,0-.06,1.16V46.18a1.61,1.61,0,0,1,0,.31c0,.22-.08,0-.19.18s.06.42,0,.55-.18,0-.26.13,0,.23,0,.3-.1,0-.19.11-.06.11-.06.23H49.2v.25h-.7v.18H10.58c-.14.07-.22.09-.19.25h-1v.24h-1v.19H7.83a.29.29,0,0,0-.06.24H7.39s0,.12-.07.15,0,0-.09.09-.2,0-.16.19H6.62V50H6.17s0,.11,0,.15,0,0-.09.08-.2,0-.16.19H5.47c0,.05,0,.12,0,.16s0,0-.1.08-.13,0-.15,0,0,.1,0,.12-.1.06-.13.11S5,51.05,5,51s0,.08-.06.07l-.06,0s-.12,0-.13,0,0,.15,0,.18-.1,0-.13,0l-.09,0s-.06,0,0,.07-.1.13-.06.08-.1.06-.13.1,0,.1,0,.12-.15,0-.19.05,0,0-.06.08S4.09,52,4,52s-.09,0-.13,0,0,.1-.06.11l-.13.07a.38.38,0,0,0-.06.27c0,.16,0,.13-.1.21l-.16.07s0,.07,0,.09-.16,0-.22.15,0,.23,0,.31-.1,0-.13.07-.1.11-.06.08,0,.08-.07.08H2.79s-.11,0-.13,0,0,.23,0,.28,0,.08-.13.18-.09,0-.12.16,0,.17-.07.26-.09,0-.13.17.07.4,0,.49-.16,0-.22.15a1,1,0,0,0,0,.25s0,.23,0,.27-.15,0-.19.12.09.44,0,.56-.21,0-.26.09,0,.23,0,.27v3.78a.82.82,0,0,0,0,.27c.05.11.1,0,.19.11s0,.33.07.51.06,0,.16.17,0,.14,0,.22a1.07,1.07,0,0,0,0,.31c0,.16.07.05.19.14s.06.29.06.44a1.2,1.2,0,0,0,0,.19s.11,0,.13,0,.05.09.07.23,0,.09.09.18.13,0,.16.16,0,.21.07.31.1,0,.12,0l.07.08s.08.1.06.08.11,0,.13,0,0,.22,0,.28,0,.09.13.18l.12.06s0,.08,0,.1.17,0,.22.12,0,.17,0,.24.06.08.19.19,0,.1,0,.12.1,0,.13,0,.11,0,.13,0,0,.12,0,.16.15,0,.22.08,0,.1.06.14.11,0,.13,0,0,.15.1.21.13,0,.19.11,0,.09,0,.12.1,0,.13,0l.09,0s0,0,0,.07.09.11.07.09.1,0,.13,0,0,.09,0,.12.13,0,.22.11,0,.15.09.23h.39c-.06.18.06.12.16.19s.09.08.09.24h.45v.24h.45c-.06.19.06.12.16.19s0,0,.09.09,0,.08.07.15h.38a.32.32,0,0,0,.06.25h.64v.18h1v.24h1c-.05.16.07.19.19.25H48.5v.18h.7v.25h.45c0,.17,0,.11.13.18s.11,0,.12.19,0,.23,0,.27.2,0,.26.13-.07.42,0,.56.13,0,.16.17a1.31,1.31,0,0,1,0,.28v34.84a7.11,7.11,0,0,0,0,1.13.76.76,0,0,1,.06.18s.17,0,.2.07,0,.19,0,.24a1.69,1.69,0,0,0,0,.55c0,.12.19.06.25.16s0,.21,0,.27-.06.47,0,.55.17,0,.19.22c0,.09,0,.19,0,.28s.05.1.16.21.06,0,.1.09,0,.1,0,.12c0,.23.1.1.22.24s0,.15.1.21.11,0,.13.2,0,.16.06.23.15,0,.19.17,0,.18.06.26.1,0,.13,0,0,0,.07.11a.6.6,0,0,0,.06.11s.11,0,.13,0,0,.23,0,.31.17,0,.25.12,0,.13.07.2.11,0,.16,0,0,.09,0,.13.16,0,.19.06,0,.1,0,.12,0,0,.1.08.13,0,.16,0,0,.1,0,.13l.06.08.13.07s0,.07.06.11.16,0,.19,0,0,.1,0,.13a.44.44,0,0,0,.1.08s.13,0,.16,0,0,.09,0,.12l.06.08c.07.09.18,0,.13.2h.51s0,.11,0,.15,0,0,.1.09.06,0,.09.09a.86.86,0,0,1,0,.16h.51c0,.17.06.11.13.19s.06.11.06.24h.51v.18h.45v.25h.7v.24h.71v.19h.7V116h4.66v-.24h.7v-.19h.7v-.24h.7v-.25H66v-.18h.45c.07-.08.08-.18.13-.24s.16,0,.12-.19h.51a.86.86,0,0,1,0-.16c0-.1,0,0,.1-.09s.07,0,.1-.09V114h.51c0-.19,0-.11.12-.2s.06-.17.1-.21.16,0,.22-.11,0-.1,0-.13.13,0,.16,0,0-.1.07-.14.12,0,.16,0,0-.14.09-.2.17,0,.23-.12,0-.09,0-.12.12,0,.16,0,0-.11.06-.14.12,0,.16,0,0-.12.06-.2.2,0,.26-.19,0-.19,0-.24.16,0,.19-.06,0-.12,0-.16.21,0,.26-.09,0-.23,0-.3.1,0,.19-.11,0-.15.06-.29.11,0,.19-.16,0-.09,0-.12,0,0,.1-.09.13-.05.16-.22,0-.15,0-.18.1,0,.13,0,.12-.08.12-.27a1.92,1.92,0,0,1,0-.24c0-.19.11-.08.19-.25s0-.46,0-.61,0-.14.07-.2.15,0,.19-.17a5.61,5.61,0,0,0,0-.58c0-.2,0-.08.13-.2a.56.56,0,0,0,.13-.23,9.14,9.14,0,0,0,0-1.17v-35s0-.12,0-.15.09,0,.12-.07a.24.24,0,0,0,.07-.21,1.5,1.5,0,0,1,0-.3c0-.18,0-.07.19-.17s.06-.14.06-.26a.24.24,0,0,1,.07-.21c.06-.08.17,0,.12-.19H73v-.25h.71v-.18h37.92c.14-.07.22-.09.19-.25h1V68.6h.89a.18.18,0,0,0,.06-.18h.64a.29.29,0,0,0,.07-.25h.38s0-.12.06-.15,0,0,.1-.09.19,0,.16-.19h.45V67.5H116a.85.85,0,0,1,0-.16c0-.11,0,0,.1-.08s.19,0,.16-.19h.38s0-.12.07-.16,0,0,.09-.08.13,0,.16,0,0-.1,0-.12.1-.06.13-.1.1-.11.06-.09,0-.08.07-.07l.06,0s.11,0,.13,0,0-.14,0-.18.1,0,.13,0,0,0,.12-.1,0-.09,0-.12.16,0,.19-.06,0-.11,0-.12.19,0,.26-.13,0-.07.06-.13.1,0,.13,0,0-.1.06-.11l.13-.07a.34.34,0,0,0,.07-.27c0-.16,0-.13.09-.21l.16-.06s0-.08,0-.1.17,0,.23-.15,0-.23,0-.31.09,0,.12-.07.1-.1.07-.08,0-.08.06-.08l.07,0s.09,0,.12-.08,0-.21,0-.28.1,0,.2-.15,0-.19,0-.25.06-.07.19-.17.06-.08.06-.2v-.24c0-.18,0-.12.1-.21s.13,0,.16-.19v-.25c0-.14,0-.15.06-.23s.11,0,.13,0,0-.1,0-.12c0-.18-.07-.41.06-.51s.14,0,.19-.14a.82.82,0,0,0,0-.27Z"/></g></g></svg>