<svg xmlns="http://www.w3.org/2000/svg" viewBox="0 0 109.67 118.74"><title>Asset 13</title><g id="f277f295-8c9b-4a97-94e2-fc9df54888f9" data-name="Layer 2"><g id="b023b843-ca99-486c-8b9a-b16fbbd65f9c" data-name="Layer 8"><path d="M75,27l.51.84a2.51,2.51,0,0,1,.26,1.3,2.08,2.08,0,0,1-.55,1.25L53.11,61.94c-.1.15-.22.28-.31.43a1.91,1.91,0,0,1-1.77.77,2.65,2.65,0,0,1-1.48-.48c-3.06-2.17-6.14-4.29-9.2-6.46a2.38,2.38,0,0,1-1.07-2.06,2.13,2.13,0,0,1,.44-1.36,10.76,10.76,0,0,1,1.14-1.52c1-1,1.59-2.29,2.57-3.27s1.54-2.25,2.5-3.21,1.64-2.16,2.51-3.2c.7-.82,1.33-1.7,2-2.54.42-.52.87-1,1.29-1.52a2.87,2.87,0,0,0,.25-.4l-2.52-.07c-.85,0-1.7-.08-2.54,0s-1.87.18-2.8.27c-.66.07-1.32.11-2,.21s-1.14.23-1.71.35c-.4.08-.81.15-1.2.26-.66.19-1.31.4-2,.6s-1.07.32-1.6.5c-.31.1-.6.26-.91.38s-.72.27-1.07.43-.64.31-1,.47l-1.12.59-1.18.67c-.25.15-.51.27-.76.42a5.25,5.25,0,0,0-.58.38c-.24.18-.47.39-.72.57s-.5.36-.74.54l-1,.81-1.05.79,0,0L24.4,46.46l-.94.95c-.32.34-.62.67-.92,1a2.17,2.17,0,0,0-.24.29c-.68,1-1.38,1.91-2,2.9A17.15,17.15,0,0,0,18.89,54c-.17.39-.37.77-.57,1.15s-.3.67-.44,1c-.21.55-.42,1.11-.61,1.67s-.31.94-.43,1.42-.2,1-.31,1.56c-.06.26-.18.51-.24.78-.08.44-.13.88-.19,1.32l-.09.59c-.06.38-.14.76-.18,1.15s-.05,1-.08,1.54c0,.34-.06.67-.06,1s0,.74,0,1.11,0,.82,0,1.23c0,.66.08,1.31.14,2s.08,1.08.18,1.62c.16.89.35,1.78.55,2.67.15.7.31,1.41.51,2.12s.4,1.33.63,2,.48,1.42.75,2.12c.16.42.4.81.6,1.23s.32.74.49,1.11.35.68.53,1,.43.85.66,1.27.46.75.68,1.12.39.71.6,1.06c.1.16.21.32.32.48.44.63.88,1.26,1.33,1.88.19.26.44.49.64.75.34.44.65.9,1,1.34s.53.56.78.85l.85,1c.2.23.4.46.58.7a2.29,2.29,0,0,1,.37,1.64,2.79,2.79,0,0,1-.68,1.4q-2.53,3.63-5.06,7.25a2.27,2.27,0,0,1-2.13,1,2.6,2.6,0,0,1-1.05-.27,6.12,6.12,0,0,1-1.34-1,11.51,11.51,0,0,1-1-1.08c-.34-.35-.69-.69-1-1s-.59-.7-.89-1c-.16-.19-.33-.39-.5-.57s-.53-.55-.78-.84-.43-.57-.65-.85l-.48-.61c-.35-.42-.71-.84-1-1.27s-.52-.81-.8-1.21-.69-1-1-1.46-.49-.81-.75-1.21-.48-.67-.69-1-.49-.87-.74-1.31-.44-.72-.65-1.09-.28-.56-.43-.84-.33-.66-.5-1-.36-.77-.55-1.16-.34-.67-.49-1-.39-.91-.57-1.37-.3-.79-.45-1.19-.34-1-.52-1.49-.29-.71-.4-1.07c-.29-.9-.57-1.8-.83-2.7-.19-.69-.37-1.37-.53-2.06S1,76,.91,75.31C.74,74.37.57,73.43.44,72.5S.25,70.82.17,70C.1,69.3,0,68.62,0,67.94s0-1.15,0-1.73c0-.76,0-1.52,0-2.27,0-.53.1-1,.14-1.57s0-1,.08-1.55.11-.77.16-1.16.06-.54.09-.8,0-.38.08-.56c.1-.44.23-.88.32-1.33s.16-1,.25-1.43c.06-.29.16-.56.23-.84s.16-.7.24-1.06l0-.06c.21-.58.43-1.16.63-1.75s.41-1.32.61-2c0,0,0-.05,0-.06.22-.48.44-1,.67-1.43a5.67,5.67,0,0,0,.59-1.31,3.29,3.29,0,0,1,.5-1c.44-.8.87-1.6,1.32-2.38.36-.63.72-1.27,1.12-1.87.56-.84,1.14-1.67,1.75-2.48a24.91,24.91,0,0,1,2-2.44,9.4,9.4,0,0,1,1-1,8.11,8.11,0,0,0,.95-1c.49-.48,1-.93,1.52-1.38s.88-.73,1.32-1.09.84-.69,1.28-1a12.24,12.24,0,0,1,1.1-.79c.43-.29.89-.53,1.33-.81s.79-.56,1.21-.81.78-.41,1.17-.62.69-.43,1-.63.73-.39,1.11-.57.7-.34,1.06-.5l1.3-.58,1.12-.46c.29-.11.6-.2.9-.3s.57-.23.86-.33l1.71-.52c.65-.21,1.27-.45,1.92-.62.92-.23,1.86-.4,2.79-.59s2-.43,3.06-.59,1.86-.19,2.79-.27,1.7-.15,2.55-.21c.32,0,.65,0,1,0v-.11c-.29-.2-.56-.41-.86-.59-.54-.34-1.11-.65-1.64-1s-1.14-.86-1.76-1.17c-1.48-.77-2.74-1.89-4.19-2.67s-2.39-1.7-3.68-2.36-2.26-1.45-3.39-2.16a3.71,3.71,0,0,1-.71-.52A2.65,2.65,0,0,1,27.8,9.7,2.81,2.81,0,0,1,28.47,8c1.59-2.27,3.18-4.53,4.76-6.81a2.51,2.51,0,0,1,1-1,2.45,2.45,0,0,1,1-.2,7.43,7.43,0,0,1,1,.16.51.51,0,0,0,.24,0Z"/><path d="M54.31,100c-5.39,0-10.78.08-16.16,0-3.32-.07,23.39-44.29,25.9-45.67,7.46-4.09,15-6.24,23.51-3.29a21,21,0,0,1,9.92,7.41c9,11.75,12.43,25.13,12.18,39.46a60.13,60.13,0,0,1-1.51,12.69c-2,8.24-8.93,10.63-15.75,5.34a171.7,171.7,0,0,1-14-12.43A10.82,10.82,0,0,0,70.16,100C64.88,100.1,59.59,100,54.31,100ZM91.08,80.84A5.84,5.84,0,0,0,97,75.37a5.77,5.77,0,0,0-6-5.74c-3.56,0-6.54,2.6-6.52,5.61S87.52,80.81,91.08,80.84Zm-9.42-14a5.77,5.77,0,0,0-5.83-5.55,5.85,5.85,0,0,0-6,5.74,6,6,0,0,0,5.85,5.58A5.86,5.86,0,0,0,81.66,66.79ZM75.71,88a5.66,5.66,0,0,0,5.94-5.35,5.78,5.78,0,0,0-5.82-5.84,5.86,5.86,0,0,0-6,5.72A5.71,5.71,0,0,0,75.71,88Z"/></g></g></svg>