<svg xmlns="http://www.w3.org/2000/svg" viewBox="0 0 104.48 115.78"><defs><style>.ac78065a-7733-4486-9ec9-4ffa7a2997cd{stroke:#fff;stroke-miterlimit:10;stroke-width:3px;}</style></defs><title>Asset 14</title><g id="be2d4d3a-80ca-4c6c-ac6b-c18c60c94ca2" data-name="Layer 2"><g id="a6230579-76f1-4e8e-a974-e915dc4b822a" data-name="Layer 10"><path d="M104.44,20V24c0,5.92-.06,11.83,0,17.75a5.16,5.16,0,0,1-2.5,4.58c-3.71,2.62-8,4-12.38,5.18-10.43,2.78-21.12,3.81-31.9,4.1a178,178,0,0,1-27.22-1.16c-8.31-1-16.55-2.48-24.17-6a23.13,23.13,0,0,1-5-3.25A3.91,3.91,0,0,1,.1,42.57c-.1-7.34-.06-14.69,0-22a2.44,2.44,0,0,1,.08-.44c.82.47,1.56.94,2.34,1.35a62.63,62.63,0,0,0,17.68,5.69,176,176,0,0,0,46.07,2.33,132,132,0,0,0,25.64-4.13A43.79,43.79,0,0,0,104.44,20Z"/><path d="M104.44,50v1.34c0,6.74-.07,13.49,0,20.23a5.42,5.42,0,0,1-2.64,4.87c-3.52,2.46-7.58,3.8-11.72,5a124.15,124.15,0,0,1-24.36,3.85,189.12,189.12,0,0,1-24.51.17C31.08,84.86,21,83.62,11.31,80.5a31.23,31.23,0,0,1-8.75-4.08A5.42,5.42,0,0,1,0,71.62c.1-6.74,0-13.49,0-20.23V50.32C2.85,51.57,5.54,53,8.37,54a89.6,89.6,0,0,0,18.77,4.33,177.52,177.52,0,0,0,32.34,1.55c11.93-.48,23.79-1.67,35.15-5.42a92.11,92.11,0,0,0,9.15-4.08C104,50.3,104.11,50.2,104.44,50Z"/><path d="M.08,80.32c2.59,1.18,5.1,2.5,7.74,3.5a90.17,90.17,0,0,0,19.8,4.59,181.08,181.08,0,0,0,35.45,1.32c10.69-.63,21.3-1.84,31.46-5.21a94.43,94.43,0,0,0,9.26-4.14c.17-.08.33-.17.65-.35v1.35c0,6.79-.06,13.57,0,20.35a5.29,5.29,0,0,1-2.54,4.69c-3.58,2.53-7.72,3.9-11.94,5a133.69,133.69,0,0,1-29,4.1,186.32,186.32,0,0,1-25.23-.5c-9.18-.83-18.27-2.2-26.91-5.43-2.75-1-5.49-2.16-7.48-4.31a4.61,4.61,0,0,1-1.26-2.8C0,95.26,0,88,0,80.71A2.19,2.19,0,0,1,.08,80.32Z"/><path d="M58.94,0l6.55.44A127,127,0,0,1,91.87,4.52a31.85,31.85,0,0,1,9.64,4.12l.19.13c3.64,2.55,3.62,5.64,0,8.21a31.78,31.78,0,0,1-9.5,4.15,112.86,112.86,0,0,1-21,3.72,197.25,197.25,0,0,1-27.5.69c-10.45-.46-20.83-1.48-30.92-4.29A32.21,32.21,0,0,1,3,17.11l-.3-.2c-3.55-2.54-3.53-5.62.07-8.13C6.72,6,11.31,4.74,16,3.64A144.5,144.5,0,0,1,43.77.19C44.36.17,45,.07,45.54,0Z"/><path class="ac78065a-7733-4486-9ec9-4ffa7a2997cd" d="M52.59,107.78H51.8A6.86,6.86,0,0,1,50,106.17q-3-3.24-6-6.47Q40,95.32,36,91L26.77,81l-6.66-7.24c-1.92-2.09-3.86-4.16-5.75-6.28a4.29,4.29,0,0,1-1.42-2.13v-.68A2.35,2.35,0,0,1,15.35,63c6.56,0,13.13,0,19.69,0h.36v-.42q0-24.9,0-49.78a4.4,4.4,0,0,1,.08-1,2,2,0,0,1,2-1.57H67a2.67,2.67,0,0,1,.4,0,2,2,0,0,1,1.23.57,2.38,2.38,0,0,1,.58,1.8q0,8.7,0,17.39V63h20.2a2.26,2.26,0,0,1,1.73.71,2,2,0,0,1,.47,1.61,2.57,2.57,0,0,1-.78,1.51q-1.59,1.77-3.19,3.53l-9.42,10.2c-.62.67-1.26,1.33-1.87,2L72.22,87c-.79.86-1.6,1.71-2.4,2.57l-5.38,5.84L59,101.33c-1.36,1.47-2.7,3-4.08,4.43A7.82,7.82,0,0,1,52.59,107.78Z"/></g></g></svg>